<mxfile host="app.diagrams.net" modified="2024-05-31T09:29:05.700Z" agent="Mozilla/5.0 (Windows NT 10.0; Win64; x64) AppleWebKit/537.36 (KHTML, like Gecko) Chrome/123.0.0.0 Safari/537.36" version="24.4.3" etag="QsNmxhQlRbvG9nMCvuMx" type="github">
  <diagram name="Trang-1" id="N5jIb8o28u3P1VkJOlbf">
    <mxGraphModel>
      <root>
        <mxCell id="0" />
        <mxCell id="1" parent="0" />
      </root>
    </mxGraphModel>
  </diagram>
</mxfile>
